<?xml version="1.0" encoding="utf-8"?>
<!-- Generator: Adobe Illustrator 16.0.3, SVG Export Plug-In . SVG Version: 6.00 Build 0)  -->
<!DOCTYPE svg PUBLIC "-//W3C//DTD SVG 1.1//EN" "http://www.w3.org/Graphics/SVG/1.1/DTD/svg11.dtd">
<svg version="1.1" xmlns="http://www.w3.org/2000/svg" xmlns:xlink="http://www.w3.org/1999/xlink" x="0px" y="0px" width="1024px"
	 height="1024px" viewBox="0 0 1024 1024" enable-background="new 0 0 1024 1024" xml:space="preserve">
	<g>
		<path fill="#000" d="M490.782,584.758c-15.473-3.512-30.748-8.484-45.484-14.795c-14.737-6.336-28.796-14.268-42.211-23.226l-9.899-6.98
			l-9.498-7.541l-2.37-1.899l-0.296-0.237l-0.148-0.119c0.046,0.05-0.23-0.201-0.251-0.222l-0.553-0.498l-1.106-0.997l-4.426-3.986
			l-4.426-3.986c-0.746-0.638-1.457-1.392-2.178-2.114l-2.16-2.182l-4.323-4.373l-2.159-2.195l-1.074-1.103l-1.002-1.145
			l-8.022-9.174c-1.379-1.499-2.56-3.155-3.827-4.745l-3.749-4.815c-1.232-1.618-2.538-3.187-3.711-4.849l-3.456-5.035L331,473.497
			c-0.566-0.847-1.173-1.669-1.705-2.538l-1.582-2.616l-6.322-10.481l-5.713-10.838l-1.419-2.718
			c-0.452-0.916-0.851-1.857-1.278-2.786l-2.523-5.59l-2.522-5.596l-0.158-0.35l-0.079-0.175c0.052,0.148-0.161-0.398-0.162-0.405
			l-0.265-0.696l-0.531-1.391l-1.062-2.782l-2.123-5.564l-1.062-2.782c-0.358-0.92-0.713-1.846-1.01-2.861l-3.701-11.92
			c-0.3-0.995-0.624-1.991-0.905-2.986l-0.73-2.984l-1.458-5.973l-1.454-5.978c-0.466-1.997-0.763-4.027-1.151-6.041l-1.099-6.055
			l-0.547-3.029c-0.182-1.01-0.382-2.017-0.482-3.039l-1.433-12.229l-0.351-3.06l-0.178-3.074l-0.353-6.149l-0.348-6.152
			c-0.112-2.051-0.027-4.106-0.049-6.16c0.033-4.107-0.04-8.221,0.089-12.328l0.799-12.309l0.204-3.078l0.399-3.241l0.741-5.908
			l0.741-5.908c0.092-0.962,0.347-2.038,0.516-3.054l0.569-3.09l1.147-6.18l0.578-3.09l0.292-1.543l0.37-1.499l2.993-11.983
			c0.456-2.01,1.12-3.96,1.732-5.925l1.855-5.891l1.872-5.886l2.193-5.773l2.198-5.773l1.101-2.886
			c0.372-0.959,0.829-1.884,1.239-2.829l5.064-11.271c0.4-0.95,0.893-1.855,1.373-2.766l1.438-2.735l2.88-5.467l1.442-2.732
			c0.478-0.913,0.951-1.827,1.504-2.698l3.196-5.29l3.201-5.286l0.801-1.321l0.4-0.66l0.1-0.166l0.262-0.396l0.211-0.307
			l1.688-2.452l6.764-9.811l7.709-9.934l1.939-2.473l2.031-2.329l4.074-4.637l4.077-4.633c1.402-1.504,2.874-2.944,4.308-4.417
			l4.33-4.395c1.445-1.462,2.862-2.954,4.418-4.302l9.141-8.282c0.746-0.708,1.561-1.337,2.362-1.981l2.405-1.929l4.812-3.855
			l2.406-1.926l1.205-0.96l1.255-0.895l5.021-3.576c3.356-2.371,6.647-4.832,10.181-6.938l5.217-3.278l2.609-1.637l1.304-0.818
			l0.326-0.205l0.163-0.102l0.398-0.23l0.652-0.358l10.462-5.69l2.625-1.418l2.83-1.337l5.659-2.666l5.658-2.654
			c1.893-0.834,3.804-1.543,5.705-2.319l5.708-2.278c1.914-0.729,3.776-1.59,5.744-2.175l11.669-3.829
			c1.928-0.685,3.924-1.154,5.898-1.688l5.931-1.568l5.93-1.55l6.009-1.22l6.006-1.207l3.003-0.594
			c1.001-0.197,2.021-0.296,3.029-0.449l12.127-1.672c1.006-0.162,2.024-0.237,3.042-0.312l3.05-0.24l6.096-0.477l3.046-0.236
			l1.522-0.118l0.381-0.029l0.308-0.018l0.187-0.005l0.744-0.022l5.954-0.157c1.001-0.019,1.965-0.069,2.996-0.061l3.088,0.021
			l6.169,0.048v12.754l-0.641-0.017l-0.395-12.708l20.931-0.369l20.882,0.236l20.827,0.701l20.777,1.022
			c6.913,0.411,13.827,0.771,20.737,1.223l20.719,1.292c6.903,0.368,13.81,0.757,20.72,1.202l10.367,0.496l10.376,0.545
			l-10.373,0.599l-10.382,0.55c-6.922,0.29-13.848,0.514-20.775,0.723l-20.773,0.499c-6.919,0.176-13.835,0.26-20.752,0.395
			l-20.718,0.447l-20.671,0.66l-20.608,1.005l-20.527,1.472l-0.395-12.708l0.674-0.017v12.754l-5.737,0.255l-2.865,0.125
			c-0.953,0.041-1.969,0.146-2.95,0.215l-5.938,0.466l-0.742,0.055l-0.187,0.014c-0.088,0.005,0.104-0.004-0.063,0.011l-0.359,0.044
			l-1.44,0.178l-2.878,0.355l-5.753,0.708l-2.874,0.352c-0.959,0.112-1.917,0.225-2.864,0.423l-11.39,2.092
			c-0.945,0.187-1.901,0.319-2.839,0.548l-2.81,0.691l-5.621,1.363l-5.618,1.35l-5.533,1.67l-5.526,1.678
			c-1.838,0.569-3.697,1.07-5.486,1.787l-10.824,3.995c-1.822,0.616-3.55,1.472-5.324,2.209l-5.289,2.288
			c-1.752,0.774-3.549,1.495-5.264,2.311l-5.051,2.553l-5.05,2.542l-2.525,1.266l-2.572,1.486l-10.299,5.979l-0.645,0.371
			c-0.263,0.153,0.176-0.105,0.077-0.042l-0.15,0.099l-0.3,0.198l-1.201,0.791l-2.401,1.58l-4.803,3.156
			c-3.257,2.021-6.275,4.392-9.357,6.664l-4.612,3.423l-1.153,0.855l-1.103,0.92l-2.204,1.843l-4.407,3.682l-2.204,1.839
			c-0.736,0.612-1.479,1.215-2.164,1.884l-8.412,7.814c-1.436,1.267-2.732,2.676-4.06,4.055l-3.976,4.138
			c-1.317,1.387-2.672,2.738-3.958,4.152l-3.731,4.357l-3.734,4.354l-1.859,2.178l-1.703,2.237l-6.857,8.908l-6.713,9.823
			l-1.678,2.459l-0.209,0.307c-0.176,0.265,0.121-0.188,0.058-0.085l-0.092,0.154l-0.368,0.615l-0.735,1.229l-2.943,4.914
			l-2.947,4.911c-0.512,0.806-0.945,1.658-1.383,2.506l-1.323,2.541c-7.365,13.388-13.243,27.567-18.053,42.061l-1.746,5.46
			c-0.577,1.821-1.208,3.627-1.632,5.492l-2.869,11.1l-0.363,1.387l-0.275,1.378l-0.546,2.757l-1.102,5.513l-0.555,2.757
			c-0.169,0.939-0.408,1.792-0.519,2.807l-0.813,5.898l-0.813,5.898l-0.368,2.662l-0.22,2.861l-0.9,11.446
			c-0.196,3.821-0.198,7.652-0.311,11.481c-0.019,1.914-0.146,3.831-0.077,5.745l0.214,5.743l0.209,5.746l0.104,2.874l0.273,2.861
			l1.097,11.452c0.063,0.958,0.226,1.903,0.371,2.851l0.435,2.844l0.866,5.69c0.31,1.893,0.527,3.805,0.912,5.685l1.207,5.629
			l1.204,5.633l0.601,2.819c0.232,0.921,0.501,1.821,0.75,2.732l3.007,10.931c0.218,0.903,0.54,1.844,0.868,2.786l0.96,2.818
			l1.919,5.637l0.96,2.818l0.479,1.409l0.24,0.705c0.038,0.11-0.123-0.323-0.022-0.061l0.068,0.167l0.136,0.333l2.184,5.342
			l2.182,5.349c0.37,0.889,0.711,1.791,1.105,2.669l1.247,2.606l4.951,10.456l5.541,10.169l1.386,2.546
			c0.467,0.846,1.009,1.646,1.51,2.472l3.063,4.923l3.061,4.931c1.031,1.638,2.195,3.185,3.286,4.783l3.326,4.764
			c1.126,1.575,2.167,3.219,3.407,4.708l7.194,9.146l0.9,1.145l0.95,1.081l1.901,2.161l3.796,4.337l1.9,2.174
			c0.638,0.724,1.243,1.458,1.967,2.157l4.18,4.243l4.181,4.243l1.045,1.061l0.522,0.531c0.066,0.066-0.117-0.103,0.025,0.026
			l0.135,0.123l0.271,0.244l2.165,1.959l8.652,7.877l9.1,7.379l2.279,1.85c0.776,0.594,1.578,1.152,2.366,1.73l4.752,3.446
			l4.759,3.453c1.605,1.126,3.286,2.132,4.927,3.205l4.951,3.188c1.658,1.051,3.268,2.194,5,3.12l10.256,5.844
			C461.238,573.175,475.722,579.507,490.782,584.758z"/>
		<path fill="#000" d="M692.286,340.494c0,0,1.147,1.047,3.298,3.011c1.05,1.008,2.404,2.18,3.886,3.69c1.454,1.547,3.111,3.361,4.969,5.428
			c0.971,1.012,1.799,2.184,2.747,3.381c0.934,1.21,1.91,2.476,2.929,3.796c0.529,0.652,1.01,1.353,1.481,2.08
			c0.478,0.726,0.964,1.466,1.458,2.219c0.974,1.518,2.053,3.064,3.045,4.729c3.896,6.695,7.816,14.616,10.995,23.743
			c3.071,9.142,5.477,19.421,6.643,30.503c1.162,11.074,1.118,22.935-0.474,35.039c-0.479,3.009-0.868,6.069-1.445,9.117
			c-0.332,1.514-0.665,3.034-0.999,4.56l-0.505,2.292l-0.254,1.149l-0.128,0.576l-0.207,0.754c-0.392,1.434-0.785,2.873-1.18,4.315
			l-0.593,2.167c-0.189,0.715-0.484,1.536-0.724,2.3c-1.023,3.102-2.053,6.274-3.26,9.21c-4.607,11.998-10.705,23.658-18.149,34.393
			c-7.494,10.692-16.104,20.62-25.694,29.172c-1.216,1.048-2.43,2.095-3.641,3.138c-1.208,1.047-2.412,2.091-3.683,3.051
			c-2.526,1.936-4.999,3.907-7.615,5.658c-1.289,0.897-2.575,1.793-3.856,2.685c-1.32,0.833-2.637,1.663-3.948,2.49l-1.965,1.234
			l-0.982,0.608c-0.442,0.27-0.191,0.112-0.321,0.189l-0.12,0.066l-0.24,0.131l-0.479,0.263c-1.278,0.699-2.551,1.396-3.818,2.091
			l-1.896,1.039c-0.603,0.347-1.374,0.688-2.051,1.03c-1.396,0.68-2.786,1.356-4.17,2.03c-0.691,0.334-1.381,0.667-2.068,0.999
			c-0.686,0.29-1.37,0.58-2.053,0.869c-1.369,0.564-2.731,1.126-4.086,1.685c-1.343,0.584-2.722,1.055-4.085,1.538
			c-1.362,0.482-2.717,0.962-4.063,1.438c-2.694,0.937-5.418,1.673-8.076,2.458c-2.672,0.74-5.349,1.309-7.954,1.949
			c-2.62,0.588-5.226,1.034-7.774,1.502c-5.124,0.8-10.074,1.448-14.843,1.775c-9.533,0.687-18.247,0.572-25.9,0.025
			c-7.652-0.619-14.251-1.487-19.627-2.506c-5.386-0.913-9.538-2.038-12.376-2.666c-1.423-0.33-2.488-0.66-3.218-0.85
			c-0.726-0.2-1.101-0.303-1.101-0.303s1.552,0.004,4.462,0.011c2.907-0.02,7.157-0.016,12.532-0.201
			c5.372-0.135,11.869-0.53,19.234-1.214c1.836-0.206,3.73-0.42,5.681-0.64c1.948-0.185,3.934-0.557,5.974-0.836
			c1.019-0.15,2.049-0.302,3.093-0.455c1.037-0.188,2.087-0.379,3.148-0.571c2.12-0.392,4.292-0.738,6.475-1.272
			c8.775-1.852,18.099-4.442,27.54-8.07c1.171-0.474,2.35-0.951,3.536-1.432c1.184-0.483,2.397-0.907,3.563-1.473
			c1.175-0.535,2.357-1.073,3.547-1.614c1.189-0.539,2.391-1.064,3.55-1.697c1.17-0.605,2.347-1.214,3.529-1.825l1.784-0.898
			l1.693-0.969c1.129-0.644,2.264-1.291,3.403-1.94c0.58-0.344,1.116-0.603,1.736-1.016l1.823-1.164
			c1.218-0.777,2.441-1.559,3.669-2.343l0.46-0.294l0.23-0.147l0.116-0.073c-0.052,0.03,0.278-0.171-0.087,0.049l0.843-0.6
			l1.7-1.189c1.134-0.792,2.271-1.588,3.414-2.386c1.103-0.852,2.209-1.706,3.319-2.563c2.256-1.663,4.369-3.538,6.533-5.362
			c1.105-0.884,2.149-1.846,3.195-2.811c1.05-0.958,2.103-1.919,3.157-2.881c8.233-7.914,15.834-16.739,22.403-26.282
			c0.869-1.16,1.645-2.383,2.431-3.599l2.368-3.641l2.198-3.738c0.72-1.253,1.498-2.473,2.139-3.766
			c1.313-2.568,2.754-5.067,3.945-7.68c0.622-1.294,1.244-2.586,1.864-3.876c0.56-1.317,1.119-2.632,1.677-3.944
			c1.189-2.641,2.054-5.21,3.041-7.773c0.242-0.659,0.502-1.235,0.732-1.96l0.695-2.136c0.463-1.422,0.925-2.84,1.385-4.253
			l0.086-0.265l0.044-0.132c-0.015,0.052,0.092-0.304-0.021,0.083l0.136-0.506l0.272-1.012l0.545-2.019
			c0.365-1.345,0.729-2.686,1.092-4.021c0.634-2.692,1.198-5.381,1.803-8.046c2.085-10.713,3.037-21.297,2.958-31.36
			c-0.059-10.066-1.12-19.602-2.798-28.322c-0.489-2.167-0.969-4.29-1.437-6.364c-0.122-0.519-0.223-1.043-0.361-1.55
			c-0.149-0.504-0.298-1.006-0.445-1.504c-0.288-1.001-0.574-1.991-0.855-2.968c-0.994-3.972-2.525-7.522-3.672-11.014
			c-0.646-1.711-1.394-3.315-2.052-4.901c-0.336-0.791-0.667-1.568-0.991-2.33c-0.31-0.772-0.632-1.521-1.007-2.223
			c-0.715-1.429-1.4-2.799-2.056-4.109c-0.683-1.294-1.225-2.623-1.925-3.733c-1.329-2.283-2.517-4.352-3.537-6.184
			c-1.08-1.801-2.132-3.265-2.916-4.487C693.13,341.798,692.286,340.494,692.286,340.494z"/>
		<path fill="#000" d="M420.81,314.983c0,0,1.206,2.428,3.468,6.981c2.233,4.562,5.525,11.252,9.48,19.889c1.958,4.326,4.126,9.114,6.486,14.328
			c2.325,5.23,4.765,10.919,7.346,17.011c5.141,12.193,10.67,26.067,16.397,41.332c5.708,15.271,11.509,31.965,17.196,49.781
			c5.667,17.821,11.215,36.767,16.322,56.548c1.277,4.945,2.532,9.941,3.776,14.979c1.176,5.055,2.36,10.146,3.552,15.269
			c2.305,10.265,4.558,20.678,6.523,31.24c2.032,10.547,3.91,21.219,5.587,31.968c1.601,10.763,3.166,21.577,4.42,32.441
			c2.519,21.72,4.193,43.57,4.813,65.141c0.634,21.57,0.148,42.865-1.513,63.42c-0.187,2.569-0.47,5.125-0.699,7.67
			c-0.121,1.272-0.242,2.542-0.362,3.809c-0.145,1.266-0.288,2.527-0.432,3.787c-0.3,2.518-0.558,5.024-0.89,7.515
			c-0.353,2.486-0.704,4.961-1.054,7.422c-1.52,9.829-3.22,19.422-5.344,28.675c-2.16,9.246-4.559,18.18-7.289,26.705
			c-2.806,8.506-5.864,16.617-9.205,24.237c-3.372,7.61-7.057,14.712-10.903,21.258c-0.993,1.619-1.974,3.217-2.941,4.793
			c-0.997,1.559-2.043,3.06-3.039,4.556c-0.507,0.743-0.989,1.492-1.506,2.213c-0.528,0.714-1.051,1.422-1.571,2.125
			c-1.053,1.396-2.038,2.801-3.118,4.108c-1.076,1.308-2.134,2.594-3.174,3.858c-1.016,1.279-2.161,2.427-3.204,3.61
			c-2.066,2.387-4.3,4.476-6.379,6.521c-1.033,1.03-2.156,1.934-3.191,2.872c-1.065,0.909-2.045,1.86-3.11,2.673
			c-1.05,0.826-2.076,1.633-3.077,2.42c-0.5,0.391-0.994,0.777-1.482,1.158c-0.509,0.355-1.011,0.705-1.506,1.051
			c-1.986,1.374-3.817,2.724-5.679,3.799c-1.841,1.101-3.524,2.182-5.206,3.002c-1.662,0.847-3.161,1.686-4.591,2.347
			c-1.437,0.64-2.743,1.22-3.912,1.74c-1.153,0.544-2.216,0.929-3.135,1.253c-0.914,0.331-1.682,0.609-2.301,0.834
			c-1.234,0.447-1.871,0.678-1.871,0.678s0.596-0.325,1.75-0.955c0.575-0.314,1.289-0.705,2.137-1.168
			c0.847-0.463,1.836-0.978,2.9-1.667c4.371-2.526,10.472-6.768,17.413-12.962c0.435-0.385,0.875-0.774,1.322-1.17
			c0.425-0.42,0.855-0.846,1.291-1.276c0.868-0.861,1.756-1.744,2.667-2.648c0.922-0.887,1.756-1.912,2.666-2.892
			c0.882-1.01,1.843-1.978,2.711-3.074c3.554-4.306,7.214-9.091,10.679-14.506c3.405-5.453,6.866-11.346,9.932-17.875
			c3.072-6.519,6.061-13.482,8.659-20.962c2.596-7.478,5.007-15.37,7.095-23.659c2.04-8.305,3.876-16.961,5.399-25.936
			c1.496-8.982,2.751-18.266,3.727-27.795c0.943-9.533,1.664-19.309,2.121-29.269c0.426-9.963,0.617-20.113,0.614-30.392
			c-0.062-5.142-0.086-10.313-0.268-15.514c-0.08-5.199-0.325-10.427-0.519-15.673c-1.047-20.982-2.712-42.3-5.285-63.543
			c-2.41-21.26-5.609-42.447-9.203-63.242c-0.458-2.599-0.915-5.191-1.371-7.778c-0.479-2.584-0.958-5.162-1.435-7.733
			c-0.903-5.153-1.951-10.254-2.916-15.339c-1.035-5.073-2.064-10.115-3.085-15.121c-1.07-4.998-2.133-9.961-3.187-14.882
			c-4.348-19.662-8.908-38.607-13.535-56.511c-2.277-8.962-4.653-17.64-6.922-26.048c-1.161-4.198-2.301-8.325-3.421-12.375
			c-1.154-4.043-2.288-8.01-3.397-11.896c-4.49-15.532-8.762-29.743-12.664-42.314c-1.967-6.284-3.808-12.166-5.51-17.604
			c-1.741-5.431-3.34-10.42-4.784-14.926c-2.953-9.003-5.273-16.077-6.854-20.9C421.647,317.562,420.81,314.983,420.81,314.983z"/>
		<path fill="#000" d="M469.735,332.327c2.131-0.757,4.278-1.431,6.418-2.138c2.143-0.706,4.279-1.385,6.467-1.956
			c4.358-1.137,8.764-2.381,13.172-3.274l6.629-1.408c2.213-0.474,4.436-0.83,6.658-1.23l6.68-1.119
			c2.229-0.394,4.462-0.675,6.699-0.97l6.713-0.88c2.238-0.316,4.482-0.501,6.726-0.73l6.734-0.656l3.371-0.296l3.372-0.229
			c2.249-0.144,4.498-0.321,6.749-0.436c2.251-0.116,4.503-0.283,6.754-0.345c2.251-0.076,4.307-0.184,6.56-0.23l6.563-0.176v14.638
			l-1,0.017v-14.671c3-0.036,6.397-0.05,9.497-0.03c3.1-0.015,6.298,0.078,9.399,0.128c3.1,0.054,6.247,0.167,9.346,0.323
			c3.099,0.163,6.225,0.245,9.319,0.476l9.297,0.692c3.094,0.247,6.189,0.599,9.278,0.91c3.088,0.301,6.177,0.703,9.257,1.104
			c3.082,0.386,6.158,0.86,9.232,1.333l4.605,0.74l4.595,0.846l4.587,0.861c1.525,0.307,3.048,0.659,4.57,0.986l4.563,0.999
			c1.517,0.355,3.027,0.764,4.539,1.144l4.53,1.158l4.498,1.322c1.495,0.455,2.996,0.861,4.481,1.355l4.441,1.517l2.215,0.757
			l2.191,0.854l4.363,1.72c1.439,0.616,2.861,1.292,4.285,1.933l2.124,0.985l2.081,1.1l2.061,1.12
			c0.681,0.381,1.371,0.733,2.024,1.174c1.324,0.837,2.632,1.68,3.913,2.544c-1.506-0.422-2.983-0.866-4.445-1.315
			c-1.461-0.451-2.996-0.718-4.466-1.112l-2.218-0.545l-2.25-0.449c-1.497-0.3-2.977-0.629-4.474-0.9
			c-3.017-0.494-5.978-1.083-9-1.486c-3.007-0.444-6.003-0.886-9.023-1.239l-4.514-0.561l-4.528-0.49
			c-3.01-0.344-6.034-0.616-9.055-0.902c-3.014-0.312-6.043-0.524-9.066-0.778l-4.531-0.375c-1.515-0.1-3.032-0.177-4.544-0.296
			c-3.023-0.227-6.046-0.456-9.08-0.596c-3.033-0.137-6.048-0.424-9.085-0.529l-9.091-0.452l-9.098-0.372l-9.102-0.324
			c-3.032-0.135-6.07-0.161-9.105-0.249c-3.036-0.083-6.27-0.208-9.308-0.227c-3.038-0.03-6.313-0.093-9.313-0.179v-14.671l1,0.017
			v14.638l-6.441-0.048c-2.213-0.004-4.328-0.07-6.543-0.104c-2.215-0.062-4.375-0.02-6.589-0.029
			c-2.213,0.014-4.403-0.034-6.618-0.048l-3.312-0.033l-3.313,0.034l-6.643,0.003c-4.437-0.027-8.859,0.076-13.298,0.102
			c-2.217,0.042-4.442-0.004-6.656,0.069l-6.657,0.138c-2.222,0.035-4.452,0.026-6.667,0.135l-6.673,0.188l-3.346,0.073
			c-1.114,0.027-2.216,0.093-3.328,0.138c-2.218,0.108-4.45,0.164-6.684,0.25c-2.239,0.023-4.484,0.22-6.737,0.301
			C474.243,332.156,471.997,332.283,469.735,332.327z"/>
	</g>
</svg>
