<?xml version="1.0" encoding="utf-8"?>
<!-- Generator: Adobe Illustrator 16.0.3, SVG Export Plug-In . SVG Version: 6.00 Build 0)  -->
<!DOCTYPE svg PUBLIC "-//W3C//DTD SVG 1.1//EN" "http://www.w3.org/Graphics/SVG/1.1/DTD/svg11.dtd">
<svg version="1.1" xmlns="http://www.w3.org/2000/svg" xmlns:xlink="http://www.w3.org/1999/xlink" x="0px" y="0px" width="1024px"
	 height="1024px" viewBox="0 0 1024 1024" enable-background="new 0 0 1024 1024" xml:space="preserve">
<g id="Calque_1" display="none">
	<polygon display="inline" fill="none" stroke="#000000" stroke-width="5" stroke-miterlimit="10" points="274.5,923.5 37,512.5 
		274.5,101.5 749.5,101.5 987,512.5 749.5,923.5 	"/>
</g>
<g id="Calque_5" display="none">
	<circle display="inline" fill="none" stroke="#000000" stroke-width="7" stroke-miterlimit="10" cx="512" cy="512" r="450"/>
</g>
<g id="Calque_6" display="none">
	<circle display="inline" fill="none" stroke="#000000" stroke-width="7" stroke-miterlimit="10" cx="512" cy="512" r="425"/>
</g>
<g id="Calque_2" display="none">
	<text transform="matrix(1 0 0 1 283.4263 625.7773)" display="inline" font-family="'MyriadPro-Regular'" font-size="709.21">G</text>
</g>
<g id="Calque_3">
	<g>
		<path d="M492.417,576.624c-13.705-3.507-27.186-8.156-40.162-14.006c-12.975-5.868-25.303-13.129-37.054-21.238l-8.676-6.294
			l-8.31-6.781l-2.071-1.707l-0.259-0.214l-0.129-0.106c0.004,0.01-0.151-0.133-0.179-0.16l-0.487-0.451l-0.974-0.902l-3.894-3.609
			l-3.895-3.608c-1.3-1.199-2.511-2.565-3.771-3.842l-3.747-3.896l-1.874-1.95l-0.934-0.979l-0.875-1.02l-6.999-8.167
			c-1.204-1.334-2.231-2.807-3.334-4.221l-3.264-4.279c-1.073-1.438-2.21-2.832-3.23-4.308l-3-4.473l-2.997-4.477
			c-0.491-0.752-1.019-1.48-1.479-2.252l-1.369-2.319l-5.474-9.29l-4.938-9.592l-1.234-2.399c-0.393-0.809-0.737-1.641-1.108-2.459
			l-2.188-4.935l-2.188-4.938l-0.137-0.309l-0.068-0.154c0.017,0.051-0.1-0.243-0.108-0.27l-0.232-0.622l-0.464-1.244l-0.929-2.487
			l-1.858-4.973l-0.929-2.487c-0.314-0.825-0.625-1.652-0.875-2.536l-3.159-10.437c-0.257-0.871-0.534-1.741-0.773-2.614
			l-0.623-2.629l-1.244-5.261l-1.242-5.263c-0.397-1.758-0.645-3.545-0.973-5.317c-0.593-3.554-1.295-7.095-1.795-10.665
			l-1.222-10.749l-0.3-2.689l-0.147-2.701l-0.292-5.403l-0.29-5.405c-0.093-1.802-0.011-3.607-0.024-5.411
			c0.042-3.607-0.013-7.22,0.111-10.827l0.741-10.806l0.188-2.701l0.353-2.776l0.681-5.265l0.681-5.265
			c0.251-1.763,0.651-3.577,0.971-5.363l1.02-5.378l0.512-2.688l0.259-1.343l0.33-1.314l2.644-10.51
			c0.398-1.764,0.982-3.475,1.519-5.199l1.627-5.169l1.64-5.166l1.924-5.066l1.927-5.066l0.965-2.533
			c0.326-0.842,0.727-1.653,1.086-2.482l4.441-9.891c0.35-0.834,0.783-1.628,1.205-2.427l1.263-2.399l2.528-4.795l1.265-2.397
			c0.419-0.801,0.834-1.603,1.32-2.366l2.806-4.639l2.808-4.637l0.703-1.159l0.351-0.58l0.088-0.145l0.171-0.258l0.188-0.273
			l1.505-2.186l6.031-8.744l6.709-8.651l1.68-2.161l1.774-2.048l3.561-4.083l3.562-4.081c1.226-1.325,2.514-2.593,3.768-3.891
			l3.787-3.873c1.264-1.289,2.502-2.604,3.864-3.792l7.999-7.302c2.732-2.358,5.598-4.561,8.391-6.845l2.107-1.699l1.055-0.847
			l1.1-0.789l4.4-3.154c2.941-2.091,5.823-4.265,8.922-6.123l4.573-2.894l2.287-1.446l1.144-0.723l0.286-0.181l0.143-0.09
			l0.261-0.151l0.581-0.321l9.292-5.139l2.329-1.28l2.461-1.181l4.923-2.357l4.923-2.352c1.652-0.743,3.333-1.378,4.998-2.072
			l5.005-2.039c1.679-0.652,3.312-1.425,5.038-1.949l10.243-3.436c1.693-0.615,3.446-1.038,5.18-1.519l5.21-1.415l5.211-1.4
			l5.282-1.107l5.28-1.105l2.639-0.552c0.88-0.183,1.776-0.279,2.663-0.423l10.666-1.585c0.886-0.152,1.781-0.228,2.677-0.303
			l2.685-0.239l5.367-0.476l2.684-0.237l1.341-0.119l0.335-0.029l0.228-0.015l0.165-0.007l0.663-0.027l5.307-0.196
			c1.753-0.088,3.563-0.091,5.372-0.089l5.416-0.011v6.345l-0.577-0.009l-0.196-6.321l18.583-0.534l18.566-0.054l18.54,0.366
			l18.515,0.626l36.979,1.559l18.486,0.703l18.498,0.492l-18.505,0.588l-18.514,0.275l-18.512,0.094l-18.501,0.02l-18.485,0.113
			l-18.463,0.329l-18.43,0.632l-18.383,1.107l-0.197-6.321l0.595-0.009v6.345l-5.2,0.174c-1.729,0.051-3.46,0.104-5.238,0.25
			l-5.298,0.36l-0.662,0.042l-0.166,0.01c-0.068,0.003,0.004,0.001-0.104,0.011l-0.325,0.036l-1.3,0.146l-2.6,0.291l-5.198,0.58
			l-2.598,0.289c-0.866,0.092-1.732,0.184-2.589,0.352l-10.304,1.771c-0.855,0.158-1.721,0.269-2.569,0.466l-2.545,0.594
			l-5.087,1.187l-5.086,1.184l-5.011,1.472l-5.005,1.48c-1.666,0.502-3.349,0.945-4.972,1.579l-9.814,3.541
			c-1.651,0.546-3.221,1.306-4.83,1.96l-4.801,2.033c-1.592,0.689-3.217,1.327-4.783,2.057l-4.625,2.291l-4.626,2.286l-2.313,1.141
			l-2.306,1.309l-9.221,5.266l-0.576,0.329l-0.434,0.283l-1.09,0.712l-2.181,1.423l-4.361,2.843c-2.957,1.822-5.699,3.958-8.5,6.006
			l-4.19,3.087l-1.047,0.771l-1.002,0.83l-2.002,1.662c-2.654,2.234-5.376,4.388-7.976,6.682
			c-10.415,9.156-19.962,19.336-28.632,30.076l-6.28,8.149l-5.986,8.764l-1.496,2.193l-0.187,0.274
			c-0.101,0.152,0.032-0.053-0.011,0.019l-0.083,0.14l-0.333,0.557l-0.667,1.115l-2.67,4.458l-2.672,4.457
			c-0.464,0.732-0.857,1.504-1.254,2.274l-1.201,2.304c-6.674,12.148-12.016,25.003-16.379,38.149l-1.583,4.952
			c-0.523,1.652-1.094,3.291-1.48,4.982l-2.583,10.073l-0.324,1.259l-0.247,1.262l-0.49,2.525l-0.985,5.049
			c-0.313,1.695-0.697,3.338-0.954,5.077l-0.705,5.262l-0.705,5.262l-0.332,2.488l-0.19,2.594l-0.774,10.376
			c-0.166,3.463-0.156,6.935-0.246,10.403c-0.01,1.734-0.117,3.471-0.049,5.204l0.211,5.202l0.209,5.203l0.104,2.603l0.256,2.591
			l1.034,10.366c0.436,3.444,1.069,6.862,1.592,10.296c0.293,1.711,0.505,3.439,0.866,5.138l1.131,5.086l1.129,5.089l0.564,2.545
			c0.217,0.836,0.469,1.657,0.701,2.486l2.823,9.939c0.209,0.828,0.501,1.664,0.799,2.5l0.873,2.507l1.746,5.014l0.873,2.507
			l0.437,1.253l0.218,0.627l0.205,0.489l2.008,4.816l2.007,4.819c0.341,0.8,0.655,1.613,1.017,2.404l1.144,2.347l4.571,9.396
			l5.105,9.123l1.277,2.282c0.43,0.759,0.927,1.476,1.387,2.216l2.813,4.41l2.81,4.415c0.946,1.466,2.01,2.851,3.009,4.281
			l3.044,4.262c1.031,1.408,1.985,2.878,3.116,4.209l6.569,8.168l0.822,1.022l0.87,0.969l1.747,1.933l3.493,3.871
			c1.187,1.28,2.28,2.61,3.545,3.851l3.779,3.729l3.78,3.729l0.945,0.933l0.472,0.466l0.437,0.388l1.972,1.732l7.874,6.967
			l8.265,6.51l2.068,1.63c0.703,0.524,1.434,1.011,2.15,1.518l4.318,3.015l4.321,3.019c1.456,0.982,2.98,1.859,4.468,2.795
			l4.487,2.772c1.503,0.913,2.962,1.908,4.529,2.708l9.277,5.053C465.842,566.887,478.896,572.317,492.417,576.624z"/>
	</g>
	<g>
		<path d="M672.092,358.82c0,0,0.963,0.984,2.77,2.83c0.884,0.941,2.033,2.043,3.275,3.446c1.213,1.434,2.596,3.104,4.142,4.994
			c0.812,0.922,1.485,2.003,2.284,3.086c0.78,1.097,1.597,2.244,2.448,3.44c0.885,1.181,1.6,2.533,2.437,3.883
			c0.803,1.369,1.696,2.76,2.509,4.256c3.205,6.004,6.452,13.036,8.968,21.103c1.152,4.052,2.399,8.287,3.224,12.774
			c0.226,1.118,0.48,2.243,0.683,3.385c0.154,1.149,0.311,2.308,0.468,3.475c0.157,1.169,0.314,2.347,0.474,3.533
			c0.188,1.186,0.206,2.392,0.317,3.601c0.813,9.672,0.655,20-0.878,30.521c-0.451,2.616-0.833,5.272-1.358,7.919
			c-0.303,1.315-0.605,2.636-0.909,3.96l-0.459,1.991l-0.229,0.998l-0.115,0.499l-0.166,0.587c-0.362,1.274-0.727,2.553-1.092,3.835
			c-0.359,1.279-0.716,2.56-1.195,3.91c-0.906,2.661-1.791,5.371-2.863,7.932c-4.085,10.401-9.393,20.532-15.885,29.854
			c-6.501,9.309-13.981,17.945-22.267,25.445c-4.175,3.711-8.435,7.267-12.918,10.408c-1.115,0.793-2.227,1.583-3.334,2.37
			c-1.143,0.736-2.281,1.47-3.416,2.2l-1.7,1.092l-0.849,0.541l-0.948,0.543c-1.13,0.641-2.255,1.278-3.375,1.913
			c-2.163,1.296-4.675,2.465-7.012,3.66l-1.771,0.885l-1.777,0.781c-1.186,0.51-2.365,1.017-3.538,1.521
			c-1.163,0.527-2.358,0.955-3.541,1.394c-1.182,0.439-2.357,0.875-3.524,1.309c-2.339,0.854-4.709,1.523-7.011,2.275
			c-2.317,0.702-4.644,1.253-6.909,1.87c-2.278,0.569-4.549,1.017-6.772,1.477c-4.47,0.81-8.802,1.459-12.979,1.874
			c-8.346,0.883-16.024,0.998-22.791,0.765c-6.768-0.262-12.63-0.831-17.423-1.498c-4.802-0.581-8.522-1.375-11.066-1.806
			c-1.273-0.23-2.234-0.461-2.89-0.593c-0.652-0.14-0.989-0.211-0.989-0.211s1.374,0.081,3.951,0.233
			c2.577,0.112,6.349,0.324,11.143,0.393c4.79,0.122,10.605-0.027,17.229-0.345c1.653-0.124,3.359-0.252,5.116-0.384
			c1.755-0.107,3.549-0.381,5.392-0.57c0.921-0.104,1.853-0.208,2.797-0.313c0.938-0.137,1.89-0.274,2.852-0.414
			c1.921-0.286,3.892-0.53,5.878-0.942c3.991-0.696,8.102-1.629,12.311-2.717c2.085-0.62,4.236-1.122,6.375-1.791
			c2.126-0.705,4.308-1.343,6.471-2.127c2.146-0.833,4.354-1.581,6.521-2.508c1.081-0.468,2.168-0.939,3.261-1.413
			c1.094-0.473,2.198-0.934,3.268-1.491c1.078-0.533,2.162-1.069,3.252-1.608l1.644-0.795l1.583-0.87
			c2.121-1.195,4.225-2.234,6.435-3.67c1.096-0.677,2.196-1.357,3.301-2.04l0.728-0.451l0.779-0.536l1.567-1.069
			c1.046-0.713,2.096-1.43,3.149-2.147c1.019-0.768,2.04-1.538,3.065-2.31c4.112-3.07,8.025-6.492,11.892-10.012
			c7.607-7.182,14.582-15.267,20.621-24.001c0.793-1.066,1.503-2.188,2.221-3.304l2.162-3.343l2.008-3.431
			c0.657-1.15,1.366-2.271,1.952-3.457c1.203-2.354,2.508-4.652,3.582-7.056c0.563-1.19,1.124-2.379,1.684-3.565
			c0.505-1.21,1.009-2.419,1.512-3.625c1.064-2.412,1.867-4.821,2.755-7.212c0.458-1.162,0.854-2.446,1.251-3.725
			c0.399-1.272,0.798-2.541,1.194-3.806l0.075-0.236l0.037-0.119c-0.002,0.009,0.057-0.187,0.005-0.011l0.119-0.465l0.239-0.929
			l0.479-1.854c0.319-1.234,0.638-2.465,0.955-3.69c0.554-2.47,1.023-4.94,1.537-7.384c1.745-9.825,2.476-19.511,2.182-28.685
			c-0.316-9.172-1.485-17.824-3.253-25.686c-0.514-1.948-1.016-3.856-1.507-5.721c-0.127-0.465-0.234-0.935-0.376-1.39
			c-0.151-0.452-0.302-0.901-0.452-1.348c-0.292-0.897-0.581-1.783-0.866-2.658c-0.283-0.878-0.563-1.744-0.839-2.599
			c-0.263-0.862-0.64-1.663-0.948-2.48c-0.646-1.626-1.275-3.207-1.885-4.737c-0.648-1.515-1.383-2.932-2.035-4.331
			c-0.333-0.697-0.66-1.382-0.98-2.054c-0.307-0.681-0.623-1.34-0.986-1.956c-0.694-1.254-1.359-2.458-1.996-3.608
			c-0.655-1.138-1.203-2.287-1.882-3.257c-1.295-1.989-2.449-3.781-3.442-5.36c-1.042-1.549-2.038-2.797-2.79-3.845
			C672.903,359.933,672.092,358.82,672.092,358.82z"/>
	</g>
</g>
<g id="Calque_4">
	<g>
		<path d="M430.024,336.073c0,0,1.003,2.195,2.885,6.31c1.877,4.115,4.601,10.166,7.939,17.933c1.646,3.892,3.467,8.201,5.45,12.893
			c1.947,4.707,4.006,9.816,6.173,15.291c4.337,10.947,9.059,23.372,13.882,37.048c4.855,13.666,9.836,28.577,14.652,44.494
			c4.838,15.909,9.66,32.785,14.009,50.414c1.071,4.411,2.151,8.859,3.238,13.34c1.025,4.496,2.057,9.024,3.096,13.581
			c2.008,9.129,3.967,18.389,5.662,27.778c1.773,9.375,3.339,18.867,4.852,28.406c1.424,9.554,2.816,19.154,3.932,28.794
			c2.237,19.277,3.67,38.657,4.363,57.771c0.688,19.119,0.253,37.982-1.028,56.187c-0.143,2.276-0.372,4.539-0.553,6.794
			s-0.386,4.498-0.637,6.727c-0.244,2.229-0.45,4.451-0.722,6.656c-0.293,2.202-0.584,4.393-0.873,6.572
			c-1.255,8.705-2.715,17.191-4.471,25.391c-1.793,8.192-3.795,16.11-6.102,23.666c-2.368,7.54-4.989,14.722-7.815,21.49
			c-2.848,6.762-5.977,13.077-9.262,18.905c-3.288,5.831-6.879,11.088-10.428,15.874c-0.921,1.173-1.827,2.327-2.718,3.461
			c-0.87,1.149-1.854,2.18-2.75,3.244c-1.775,2.146-3.697,4.03-5.486,5.882c-0.889,0.932-1.858,1.75-2.751,2.6
			c-0.919,0.825-1.764,1.688-2.687,2.427c-0.909,0.752-1.797,1.486-2.663,2.202c-0.433,0.356-0.861,0.709-1.284,1.057
			c-0.441,0.324-0.877,0.645-1.307,0.96c-1.724,1.256-3.315,2.492-4.937,3.482c-1.602,1.016-3.063,2.021-4.531,2.788
			c-1.449,0.792-2.757,1.575-4.007,2.198c-1.258,0.604-2.401,1.153-3.425,1.646c-1.011,0.514-1.944,0.882-2.749,1.198
			c-0.802,0.321-1.477,0.592-2.02,0.81c-1.085,0.434-1.645,0.658-1.645,0.658s0.539-0.271,1.583-0.798
			c0.521-0.263,1.169-0.588,1.938-0.976c0.77-0.386,1.666-0.819,2.632-1.405c3.961-2.146,9.544-5.741,15.913-11.151
			c0.4-0.335,0.805-0.676,1.215-1.02c0.391-0.367,0.787-0.739,1.188-1.115c0.8-0.754,1.619-1.526,2.458-2.316
			c0.851-0.776,1.623-1.676,2.464-2.536c0.817-0.886,1.705-1.736,2.512-2.701c3.302-3.785,6.699-8.021,9.944-12.823
			c6.482-9.608,12.444-21.322,17.466-34.673c2.468-6.693,4.723-13.783,6.719-21.218c1.946-7.45,3.72-15.217,5.212-23.272
			c2.932-16.126,4.772-33.357,5.789-51.241c0.495-8.944,0.689-18.058,0.732-27.284c-0.033-4.615-0.033-9.257-0.175-13.923
			c-0.047-4.666-0.242-9.355-0.391-14.063c-0.792-18.829-2.338-37.939-4.641-56.972c-1.043-9.528-2.363-19.027-3.714-28.484
			c-1.439-9.445-2.931-18.847-4.631-28.139c-0.811-4.653-1.71-9.271-2.583-13.872c-0.83-4.607-1.788-9.168-2.673-13.715
			c-0.947-4.534-1.888-9.041-2.822-13.517c-0.998-4.462-1.988-8.893-2.971-13.286c-4.082-17.541-8.272-34.452-12.613-50.398
			c-2.151-7.979-4.391-15.699-6.522-23.18c-1.089-3.734-2.16-7.405-3.21-11.009c-1.088-3.593-2.155-7.119-3.201-10.573
			c-2.135-6.895-4.208-13.496-6.231-19.759c-1.978-6.279-3.953-12.204-5.8-17.776c-1.888-5.56-3.656-10.763-5.29-15.575
			c-1.674-4.8-3.21-9.209-4.599-13.192c-1.417-3.973-2.683-7.521-3.784-10.606c-1.119-3.083-2.07-5.705-2.842-7.832
			C430.843,338.343,430.024,336.073,430.024,336.073z"/>
	</g>
	<g>
		<path d="M473.649,351.538l5.819-1.381c1.94-0.462,3.877-0.919,5.843-1.277l5.887-1.13c1.965-0.387,3.937-0.702,5.91-1.002
			l5.922-0.923c1.974-0.317,3.959-0.528,5.941-0.779l5.95-0.731c1.982-0.266,3.972-0.431,5.961-0.615l5.969-0.546
			c1.989-0.2,3.982-0.323,5.976-0.463l5.979-0.412c1.994-0.135,3.989-0.24,5.985-0.309l5.988-0.247
			c1.996-0.072,4.115-0.19,6.113-0.215c3.994-0.101,8.107-0.144,12.107-0.199v4.847l-1,0.004v-4.854l8.172,0.033
			c2.747-0.009,5.459,0.077,8.205,0.125c2.748,0.052,5.476,0.142,8.22,0.278c2.744,0.133,5.482,0.227,8.225,0.392l8.223,0.51
			c2.742,0.188,5.477,0.454,8.215,0.688c2.738,0.216,5.468,0.558,8.202,0.833c2.735,0.27,5.463,0.618,8.189,0.965l4.088,0.54
			l4.078,0.631c2.719,0.411,5.435,0.838,8.141,1.343l4.062,0.723c1.351,0.257,2.694,0.562,4.042,0.84l4.036,0.854l4.017,0.958
			c1.337,0.331,2.68,0.621,4.008,0.986l3.977,1.119c2.659,0.699,5.262,1.634,7.886,2.447c1.299,0.455,2.582,0.963,3.871,1.442
			l1.93,0.728l1.896,0.822c1.254,0.567,2.528,1.079,3.747,1.719l3.64,1.92l-3.813-1.521c-1.265-0.51-2.594-0.863-3.877-1.318
			l-1.938-0.646l-1.971-0.551c-1.315-0.36-2.619-0.749-3.939-1.084c-2.658-0.614-5.275-1.348-7.958-1.848
			c-2.668-0.552-5.332-1.101-8.019-1.561l-4.019-0.72l-4.04-0.616c-2.688-0.429-5.389-0.788-8.088-1.151
			c-2.694-0.389-5.4-0.701-8.108-0.998l-4.06-0.458l-4.068-0.384c-2.71-0.276-5.419-0.555-8.137-0.755
			c-2.718-0.205-5.427-0.477-8.149-0.623l-8.157-0.526l-8.163-0.438c-2.722-0.141-5.447-0.212-8.17-0.321
			c-2.723-0.123-5.448-0.157-8.174-0.231c-2.725-0.07-5.381-0.179-8.107-0.191l-8.111-0.1v-4.854l1,0.004v4.847
			c-4,0.021-8.061,0.053-12.029,0.028c-1.986-0.024-4.03,0.044-6.015,0.067l-5.982,0.098c-1.985,0.02-3.984,0.075-5.967,0.16
			l-5.959,0.177c-1.983,0.058-3.974,0.1-5.954,0.218l-5.948,0.299c-1.981,0.116-3.971,0.16-5.949,0.312l-5.944,0.39
			c-1.98,0.138-3.967,0.235-5.942,0.438l-5.938,0.5c-1.983,0.156-3.963,0.327-5.931,0.569l-5.928,0.629
			c-1.982,0.173-3.951,0.497-5.931,0.736L473.649,351.538z"/>
	</g>
	<polygon fill="none" stroke="#000000" stroke-width="7" stroke-miterlimit="10" points="261.617,945.5 11.617,512.5 261.617,79.5 
		761.617,79.5 1011.617,512.5 761.617,945.5 	"/>
</g>
</svg>
